<svg xmlns="http://www.w3.org/2000/svg" width="48" height="48" id="bicycle"><path fill-rule="evenodd" d="M24 0A24 24 0 0 0 0 24a24 24 0 0 0 24 24 24 24 0 0 0 24-24A24 24 0 0 0 24 0zm5.027 14.432v.034c1.127-.055 1.942.653 2.094 1.47.077.412-.001.87-.281 1.218-.28.349-.77.563-1.313.563h-.343a.5.5 0 1 1 0-1h.343c.311-.001.456-.094.532-.188.075-.094.093-.24.062-.406-.062-.333-.344-.733-1.062-.687a.5.5 0 0 1-.032 0l-1.53.029 1.093 2.094a.5.5 0 0 1 .031.062l.031.031a.5.5 0 0 1 .032.032l.03.03a.5.5 0 0 1 .032.032.5.5 0 0 1 0 .03.5.5 0 0 1 .094.156v.03a.5.5 0 0 1 0 .032l1.844 3.406a6.026 6.026 0 0 1 2.062-.375c3.325 0 6.031 2.671 6.031 5.97 0 3.297-2.706 5.968-6.03 5.968-3.326 0-6.032-2.67-6.032-5.969 0-2.228 1.236-4.162 3.062-5.187l-1.5-2.782-3.968 6.313a.5.5 0 0 1-.032.062c.3.352.5.784.5 1.282a1.999 1.999 0 0 1-1.875 2 .5.5 0 0 1 .25.5l-.218 1.843.343.032a.504.504 0 1 1-.125 1l-1.656-.188a.502.502 0 1 1-.094-1 .5.5 0 0 1 .188 0l.344.031.187-1.468-3.125-.313c-.863 2.255-3.08 3.844-5.656 3.844-3.325 0-6.031-2.67-6.031-5.969 0-3.298 2.706-5.969 6.03-5.969.514 0 1.025.068 1.5.188l2.688-4-.5-.906a.5.5 0 0 1 .344-.75.5.5 0 0 1 .094 0h1.719c.694 0 1.187.444 1.312.906a.5.5 0 0 1-.969.25c-.008-.03-.013-.156-.343-.156h-.907l.22.437a.5.5 0 0 1 .03.031l.032.094a.5.5 0 0 1 .03.06l.157.282h8.719l-1.219-2.25a.5.5 0 0 1 .438-.75l2.343-.03zM18.06 18.244l-2.22 3.313a6.063 6.063 0 0 1 3.126 3.312l2.5-.25-3.344-6.281a.506.506 0 0 1-.062-.094zm1.252.219 3.216 6.06.157-1.468-.313-.03a.5.5 0 0 1 .031-1 .5.5 0 0 1 .094 0l1.656.22a.5.5 0 0 1 .532.624l2.78-4.406h-8.153zm-5.971 3.56c-2.79 0-5.031 2.217-5.031 4.97 0 2.751 2.24 4.968 5.03 4.968a5.033 5.033 0 0 0 4.595-2.938l-5.125-.53h-.157a.501.501 0 0 1-.093-.032 1.487 1.487 0 0 1-1.25-1.469c0-.258.071-.475.187-.687a.507.507 0 0 1 .063-.125c.011-.017.018-.044.03-.06l2.657-4a5.3 5.3 0 0 0-.906-.095v-.002zm19.406.002c-.546 0-1.071.124-1.562.282l1.718 3.187a1.503 1.503 0 0 1-.156 3c-.826 0-1.5-.674-1.5-1.5 0-.516.257-.949.656-1.219l-1.656-3.062c-1.507.857-2.531 2.435-2.531 4.281 0 2.752 2.241 4.969 5.031 4.969 2.79 0 5.031-2.217 5.031-4.969 0-2.752-2.241-4.969-5.03-4.969zm-17.469.407-2.03 3 4.687-.47a4.96 4.96 0 0 0-2.657-2.53zm8.407.75-.157 1.53.938-1.53a.5.5 0 0 1-.438.029l-.343-.03zm-2.625 2.5-1.813.156c.077.38.125.754.125 1.156 0 .391-.052.786-.125 1.156l2.5.282a2.04 2.04 0 0 1-.969-1.75c0-.367.11-.704.282-1zm1.718 0c-.579 0-1.062.438-1.062 1 0 .561.483 1.062 1.062 1.062.58 0 1.063-.5 1.063-1.062s-.483-1-1.063-1zm-4.5.28-4.125.407c.095.197.157.393.157.625 0 .222-.07.435-.157.625l4.125.438c.071-.334.094-.708.094-1.063 0-.354-.023-.698-.094-1.031zm-5.53.532a.467.467 0 0 0-.282.156l-.031.032c-.01.01-.024.017-.032.029a.507.507 0 0 1-.062.096.477.477 0 0 0-.031.187c0 .28.209.5.5.5.29 0 .5-.22.5-.5s-.21-.5-.5-.5a.502.502 0 0 1-.063 0zm20 0c-.292 0-.5.22-.5.5s.208.5.5.5c.29 0 .5-.22.5-.5s-.21-.5-.5-.5zm-6.643 5.498a.501.501 0 0 1 .048.002.5.5 0 0 1 .063 0h2.062a.5.5 0 1 1 0 1h-2.062a.504.504 0 0 1-.125-1 .501.501 0 0 1 .014-.002z"></path><path fill="#fff" d="M8.743 1036.361a.5.5 0 1 0 .031 1h8a.5.5 0 1 0 0-1h-8a.5.5 0 0 0-.031 0zm21.687 0a.501.501 0 1 0 .063 1h8a.5.5 0 1 0 0-1h-8a.5.5 0 0 0-.063 0z" color="#000" font-family="Sans" font-weight="400" overflow="visible" style="line-height:normal;-inkscape-font-specification:Sans;text-indent:0;text-align:start;text-decoration-line:none;text-transform:none;block-progression:tb;marker:none" transform="translate(0 -1004.362)"></path></svg>