<svg width="279" height="306" viewBox="0 0 279 306" fill="none" xmlns="http://www.w3.org/2000/svg">
<path fill-rule="evenodd" clip-rule="evenodd" d="M73.5074 277.796L10.9294 305.709L50.3162 206.53L94.1346 198.561L139.231 207.401L184.327 198.561L228.145 206.53L267.533 305.709L204.86 277.796L139.231 304.119L73.5074 277.796Z" fill="#9A9A9A" fill-opacity="0.18"/>
<path fill-rule="evenodd" clip-rule="evenodd" d="M73.5074 277.796L0.183594 296.935L45.6207 182.523L94.1792 173.691L73.5074 277.796Z" fill="#C7E5E7"/>
<path fill-rule="evenodd" clip-rule="evenodd" d="M73.5073 277.796L139.231 296.935V182.523L94.1792 173.691L73.5073 277.796Z" fill="#B4D2D4"/>
<path fill-rule="evenodd" clip-rule="evenodd" d="M204.954 277.796L139.231 296.935V182.523L184.283 173.691L204.954 277.796Z" fill="#C7E5E7"/>
<path fill-rule="evenodd" clip-rule="evenodd" d="M204.954 277.796L278.279 296.935L232.841 182.523L184.282 173.691L204.954 277.796Z" fill="#B4D2D4"/>
<path fill-rule="evenodd" clip-rule="evenodd" d="M73.6016 271.075L10.929 287.433L50.3163 188.254L94.1347 180.285L139.231 189.125L184.327 180.285L228.146 188.254L267.533 287.433L204.86 271.075L139.231 290.185L73.6016 271.075Z" fill="#E7E7E7"/>
<path fill-rule="evenodd" clip-rule="evenodd" d="M252.04 248.42H252.039L214.286 242.864L222.232 275.609L267.533 287.433L252.04 248.42Z" fill="url(#paint0_linear_0_1)"/>
<path fill-rule="evenodd" clip-rule="evenodd" d="M218.551 243.57L253.679 252.548L250.722 245.104L209.879 234.665L219.004 274.767L226.07 276.611L218.551 243.57Z" fill="white"/>
<path fill-rule="evenodd" clip-rule="evenodd" d="M84.5076 274.251L139.231 290.186L171.358 280.831L164.567 230.965L138.347 234.665L126.723 230.965L125.32 245.138L89.8503 240.414L84.5076 274.251Z" fill="url(#paint1_linear_0_1)"/>
<path fill-rule="evenodd" clip-rule="evenodd" d="M73.5073 222.23L82.0097 182.49L50.316 188.254L34.8845 227.111L73.5073 222.23Z" fill="url(#paint2_linear_0_1)"/>
<path fill-rule="evenodd" clip-rule="evenodd" d="M220.904 218.691L212.602 185.427L205.606 184.155L212.224 210.675L191.208 207.172L160.513 211.953L162.127 228.208L138.952 231.934L129.801 226.766L130.795 211.499L111.284 208.247L114.65 184.306L108.283 183.058L106.82 193.457L90.3317 189.987L83.2309 191.892L85.6207 181.833L79.5613 182.935L70.7537 218.967L35.3839 225.857L32.5417 233.012L53.9912 228.834L38.0076 280.366L45.3903 278.439L61.2119 227.427L77.0697 224.34L81.9686 198.939L90.5138 196.646L105.916 199.887L103.988 213.601L123.948 216.927L122.332 241.726L88.3598 234.292L81.4191 273.352L87.6768 275.173L93.56 242.063L128.308 249.667L129.333 233.944L137.741 238.692L162.769 234.667L167.468 281.964L173.797 280.12L167.567 217.412L191.172 213.736L220.904 218.691Z" fill="white"/>
<path fill-rule="evenodd" clip-rule="evenodd" d="M101.377 45.1883C101.377 70.1453 56.1889 132.322 56.1889 132.322C56.1889 132.322 11 70.1453 11 45.1883C11 20.2312 31.2319 0 56.1889 0C81.1453 0 101.377 20.2312 101.377 45.1883ZM81.3348 44.6947C81.3348 58.3487 70.3272 69.4172 56.7483 69.4172C43.1695 69.4172 32.1619 58.3487 32.1619 44.6947C32.1619 31.0407 43.1695 19.9716 56.7483 19.9716C70.3272 19.9716 81.3348 31.0407 81.3348 44.6947Z" fill="url(#paint3_linear_0_1)"/>
<path fill-rule="evenodd" clip-rule="evenodd" d="M232.457 238.656C232.457 240.271 221.98 241.581 209.057 241.581C196.133 241.581 185.657 240.271 185.657 238.656C185.657 237.041 196.133 235.731 209.057 235.731C221.98 235.731 232.457 237.041 232.457 238.656" fill="black" fill-opacity="0.1"/>
<path fill-rule="evenodd" clip-rule="evenodd" d="M80.16 238.656C80.16 240.271 71.5163 241.581 60.8555 241.581C50.1929 241.581 41.55 240.271 41.55 238.656C41.55 237.041 50.1929 235.731 60.8555 235.731C71.5163 235.731 80.16 237.041 80.16 238.656" fill="black" fill-opacity="0.1"/>
<path fill-rule="evenodd" clip-rule="evenodd" d="M248.542 195.633C248.542 216.589 231.554 233.579 210.596 233.579C189.64 233.579 172.65 216.589 172.65 195.633C172.65 174.677 189.64 157.687 210.596 157.687C231.554 157.687 248.542 174.677 248.542 195.633Z" stroke="#3CAAB0" stroke-width="7.88486"/>
<path fill-rule="evenodd" clip-rule="evenodd" d="M245.233 195.633C245.233 214.763 229.725 230.269 210.597 230.269C191.468 230.269 175.958 214.763 175.958 195.633C175.958 176.502 191.468 160.997 210.597 160.997C229.725 160.997 245.233 176.502 245.233 195.633Z" stroke="#092242" stroke-width="3.94243"/>
<path fill-rule="evenodd" clip-rule="evenodd" d="M218.312 195.633C218.312 199.895 214.858 203.348 210.596 203.348C206.336 203.348 202.881 199.895 202.881 195.633C202.881 191.371 206.336 187.917 210.596 187.917C214.858 187.917 218.312 191.371 218.312 195.633" fill="#092242"/>
<path fill-rule="evenodd" clip-rule="evenodd" d="M100.926 195.633C100.926 216.589 83.9361 233.579 62.9801 233.579C42.0221 233.579 25.0342 216.589 25.0342 195.633C25.0342 174.677 42.0221 157.687 62.9801 157.687C83.9361 157.687 100.926 174.677 100.926 195.633Z" stroke="#3CAAB0" stroke-width="7.88486"/>
<path fill-rule="evenodd" clip-rule="evenodd" d="M97.617 195.633C97.617 214.763 82.1094 230.269 62.9807 230.269C43.8501 230.269 28.3425 214.763 28.3425 195.633C28.3425 176.502 43.8501 160.997 62.9807 160.997C82.1094 160.997 97.617 176.502 97.617 195.633Z" stroke="#092242" stroke-width="3.94243"/>
<path fill-rule="evenodd" clip-rule="evenodd" d="M70.6946 195.633C70.6946 199.895 67.241 203.348 62.9792 203.348C58.7194 203.348 55.2659 199.895 55.2659 195.633C55.2659 191.371 58.7194 187.917 62.9792 187.917C67.241 187.917 70.6946 191.371 70.6946 195.633" fill="#092242"/>
<path d="M62.98 190.377L126.5 185.472" stroke="#092242" stroke-width="1.97122"/>
<path fill-rule="evenodd" clip-rule="evenodd" d="M139.763 195.633C139.763 201.444 135.052 206.155 129.241 206.155C123.428 206.155 118.717 201.444 118.717 195.633C118.717 189.822 123.428 185.11 129.241 185.11C135.052 185.11 139.763 189.822 139.763 195.633" fill="#092242"/>
<path d="M210.596 195.633L192.092 102.617" stroke="url(#paint4_linear_0_1)" stroke-width="3.94243" stroke-linecap="round" stroke-linejoin="round"/>
<path d="M109.625 126.147H196.982" stroke="url(#paint5_linear_0_1)" stroke-width="3.94243" stroke-linecap="round" stroke-linejoin="round"/>
<path d="M124.964 180.07C124.964 180.07 150.085 136.989 198.93 136.989" stroke="url(#paint6_linear_0_1)" stroke-width="3.94243" stroke-linecap="round" stroke-linejoin="round"/>
<path d="M128.038 195.633H62.98C62.98 195.633 65.8816 137.886 107.861 119.944" stroke="url(#paint7_linear_0_1)" stroke-width="3.94243" stroke-linecap="round" stroke-linejoin="round"/>
<path d="M106.471 115.059L130.372 199.082" stroke="url(#paint8_linear_0_1)" stroke-width="3.94243" stroke-linecap="round" stroke-linejoin="round"/>
<path d="M188.523 102H209.714C217.352 102 219.694 110.253 215.381 115.059C211.07 119.865 203.023 118.633 203.023 118.633" stroke="url(#paint9_linear_0_1)" stroke-width="3.94243" stroke-linecap="round" stroke-linejoin="round"/>
<path d="M62.2004 201.218L130.371 206.803" stroke="#092242" stroke-width="1.97122"/>
<path fill-rule="evenodd" clip-rule="evenodd" d="M100.926 116.171C93.7585 116.171 93.4934 114.552 93.4934 112.558C93.4934 110.561 93.7585 108.944 100.926 108.944C108.091 108.944 119.448 110.561 119.448 112.558C119.448 114.552 108.091 116.171 100.926 116.171Z" fill="#6B3E00"/>
<defs>
<linearGradient id="paint0_linear_0_1" x1="275.693" y1="301.094" x2="275.693" y2="242.864" gradientUnits="userSpaceOnUse">
<stop stop-color="#009EFD"/>
<stop offset="1" stop-color="#2AF598"/>
</linearGradient>
<linearGradient id="paint1_linear_0_1" x1="184.669" y1="308.338" x2="184.669" y2="230.965" gradientUnits="userSpaceOnUse">
<stop stop-color="#009EFD"/>
<stop offset="1" stop-color="#2AF598"/>
</linearGradient>
<linearGradient id="paint2_linear_0_1" x1="89.232" y1="240.788" x2="89.232" y2="182.49" gradientUnits="userSpaceOnUse">
<stop stop-color="#009EFD"/>
<stop offset="1" stop-color="#2AF598"/>
</linearGradient>
<linearGradient id="paint3_linear_0_1" x1="115.228" y1="172.88" x2="115.228" y2="0" gradientUnits="userSpaceOnUse">
<stop stop-color="#009EFD"/>
<stop offset="1" stop-color="#2AF598"/>
</linearGradient>
<linearGradient id="paint4_linear_0_1" x1="213.432" y1="224.143" x2="213.432" y2="102.617" gradientUnits="userSpaceOnUse">
<stop stop-color="#009EFD"/>
<stop offset="1" stop-color="#2AF598"/>
</linearGradient>
<linearGradient id="paint5_linear_0_1" x1="210.37" y1="127.737" x2="210.37" y2="125.162" gradientUnits="userSpaceOnUse">
<stop stop-color="#009EFD"/>
<stop offset="1" stop-color="#2AF598"/>
</linearGradient>
<linearGradient id="paint6_linear_0_1" x1="210.265" y1="193.275" x2="210.265" y2="136.989" gradientUnits="userSpaceOnUse">
<stop stop-color="#009EFD"/>
<stop offset="1" stop-color="#2AF598"/>
</linearGradient>
<linearGradient id="paint7_linear_0_1" x1="138.009" y1="218.833" x2="138.009" y2="119.944" gradientUnits="userSpaceOnUse">
<stop stop-color="#009EFD"/>
<stop offset="1" stop-color="#2AF598"/>
</linearGradient>
<linearGradient id="paint8_linear_0_1" x1="134.035" y1="224.837" x2="134.035" y2="115.059" gradientUnits="userSpaceOnUse">
<stop stop-color="#009EFD"/>
<stop offset="1" stop-color="#2AF598"/>
</linearGradient>
<linearGradient id="paint9_linear_0_1" x1="221.971" y1="123.916" x2="221.971" y2="102" gradientUnits="userSpaceOnUse">
<stop stop-color="#009EFD"/>
<stop offset="1" stop-color="#2AF598"/>
</linearGradient>
</defs>
</svg>
