<svg width="279" height="306" viewBox="0 0 279 306" fill="none" xmlns="http://www.w3.org/2000/svg">
<path fill-rule="evenodd" clip-rule="evenodd" d="M73.5074 277.796L10.9294 305.709L50.3162 206.53L94.1346 198.561L139.231 207.401L184.327 198.561L228.145 206.53L267.533 305.709L204.86 277.796L139.231 304.119L73.5074 277.796Z" fill="#9A9A9A" fill-opacity="0.18"/>
<path fill-rule="evenodd" clip-rule="evenodd" d="M73.5074 277.796L0.183594 296.935L45.6207 182.523L94.1792 173.691L73.5074 277.796Z" fill="#C7E5E7"/>
<path fill-rule="evenodd" clip-rule="evenodd" d="M73.5073 277.796L139.231 296.935V182.523L94.1792 173.691L73.5073 277.796Z" fill="#B4D2D4"/>
<path fill-rule="evenodd" clip-rule="evenodd" d="M204.954 277.796L139.231 296.935V182.523L184.283 173.691L204.954 277.796Z" fill="#C7E5E7"/>
<path fill-rule="evenodd" clip-rule="evenodd" d="M204.954 277.796L278.279 296.935L232.841 182.523L184.282 173.691L204.954 277.796Z" fill="#B4D2D4"/>
<path fill-rule="evenodd" clip-rule="evenodd" d="M73.6016 271.075L10.929 287.433L50.3163 188.254L94.1347 180.285L139.231 189.125L184.327 180.285L228.146 188.254L267.533 287.433L204.86 271.075L139.231 290.185L73.6016 271.075Z" fill="#E7E7E7"/>
<path fill-rule="evenodd" clip-rule="evenodd" d="M252.04 248.42H252.039L214.286 242.864L222.232 275.609L267.533 287.433L252.04 248.42Z" fill="url(#paint0_linear_80_2561)"/>
<path fill-rule="evenodd" clip-rule="evenodd" d="M218.551 243.57L253.679 252.548L250.722 245.104L209.879 234.665L219.004 274.767L226.07 276.611L218.551 243.57Z" fill="white"/>
<path fill-rule="evenodd" clip-rule="evenodd" d="M84.5076 274.251L139.231 290.186L171.358 280.831L164.567 230.965L138.347 234.665L126.723 230.965L125.32 245.138L89.8503 240.414L84.5076 274.251Z" fill="url(#paint1_linear_80_2561)"/>
<path fill-rule="evenodd" clip-rule="evenodd" d="M73.5073 222.23L82.0097 182.49L50.316 188.254L34.8845 227.111L73.5073 222.23Z" fill="url(#paint2_linear_80_2561)"/>
<path fill-rule="evenodd" clip-rule="evenodd" d="M220.904 218.691L212.602 185.427L205.606 184.155L212.224 210.675L191.208 207.172L160.513 211.953L162.127 228.208L138.952 231.934L129.801 226.766L130.795 211.499L111.284 208.247L114.65 184.306L108.283 183.058L106.82 193.457L90.3317 189.987L83.2309 191.892L85.6207 181.833L79.5613 182.935L70.7537 218.967L35.3839 225.857L32.5417 233.012L53.9912 228.834L38.0076 280.366L45.3903 278.439L61.2119 227.427L77.0697 224.34L81.9686 198.939L90.5138 196.646L105.916 199.887L103.988 213.601L123.948 216.927L122.332 241.726L88.3598 234.292L81.4191 273.352L87.6768 275.173L93.56 242.063L128.308 249.667L129.333 233.944L137.741 238.692L162.769 234.667L167.468 281.964L173.797 280.12L167.567 217.412L191.172 213.736L220.904 218.691Z" fill="white"/>
<path fill-rule="evenodd" clip-rule="evenodd" d="M101.377 45.1883C101.377 70.1453 56.1889 132.322 56.1889 132.322C56.1889 132.322 11 70.1453 11 45.1883C11 20.2312 31.2319 0 56.1889 0C81.1453 0 101.377 20.2312 101.377 45.1883ZM81.3348 44.6947C81.3348 58.3487 70.3272 69.4172 56.7483 69.4172C43.1695 69.4172 32.1619 58.3487 32.1619 44.6947C32.1619 31.0407 43.1695 19.9716 56.7483 19.9716C70.3272 19.9716 81.3348 31.0407 81.3348 44.6947Z" fill="url(#paint3_linear_80_2561)"/>
<defs>
<linearGradient id="paint0_linear_80_2561" x1="275.693" y1="301.094" x2="275.693" y2="242.864" gradientUnits="userSpaceOnUse">
<stop stop-color="#009EFD"/>
<stop offset="1" stop-color="#2AF598"/>
</linearGradient>
<linearGradient id="paint1_linear_80_2561" x1="184.669" y1="308.338" x2="184.669" y2="230.965" gradientUnits="userSpaceOnUse">
<stop stop-color="#009EFD"/>
<stop offset="1" stop-color="#2AF598"/>
</linearGradient>
<linearGradient id="paint2_linear_80_2561" x1="89.232" y1="240.788" x2="89.232" y2="182.49" gradientUnits="userSpaceOnUse">
<stop stop-color="#009EFD"/>
<stop offset="1" stop-color="#2AF598"/>
</linearGradient>
<linearGradient id="paint3_linear_80_2561" x1="115.228" y1="172.88" x2="115.228" y2="0" gradientUnits="userSpaceOnUse">
<stop stop-color="#009EFD"/>
<stop offset="1" stop-color="#2AF598"/>
</linearGradient>
</defs>
</svg>
