<svg xmlns="http://www.w3.org/2000/svg" version="1.1" xmlns:xlink="http://www.w3.org/1999/xlink" xmlns:svgjs="http://svgjs.dev/svgjs" viewBox="0 0 1422 800"><circle r="12" cx="333" cy="265" fill="hsl(109, 75%, 70%)" opacity="0.27"></circle><circle r="11.5" cx="1308" cy="622" fill="hsl(145, 75%, 70%)" opacity="0.66"></circle><circle r="16" cx="707" cy="646" fill="hsl(107, 75%, 70%)" opacity="0.82"></circle><circle r="12" cx="733" cy="31" fill="hsl(141, 75%, 70%)" opacity="0.44"></circle><circle r="6" cx="13" cy="207" fill="hsl(71, 75%, 70%)" opacity="0.91"></circle><circle r="7.5" cx="1137" cy="216" fill="hsl(106, 75%, 70%)" opacity="0.31"></circle><circle r="7.5" cx="20" cy="542" fill="hsl(71, 75%, 70%)" opacity="0.38"></circle><circle r="14" cx="313" cy="356" fill="hsl(109, 75%, 70%)" opacity="0.57"></circle><circle r="6" cx="445" cy="290" fill="hsl(100, 75%, 70%)" opacity="0.22"></circle><circle r="10.5" cx="1403" cy="381" fill="hsl(209, 75%, 70%)" opacity="0.85"></circle><circle r="7.5" cx="981" cy="373" fill="hsl(146, 75%, 70%)" opacity="0.51"></circle><circle r="12" cx="232" cy="362" fill="hsl(100, 75%, 70%)" opacity="0.85"></circle><circle r="10.5" cx="525" cy="224" fill="hsl(92, 75%, 70%)" opacity="0.54"></circle><circle r="12.5" cx="1318" cy="520" fill="hsl(157, 75%, 70%)" opacity="0.88"></circle><circle r="11.5" cx="571" cy="543" fill="hsl(89, 75%, 70%)" opacity="0.81"></circle><circle r="8.5" cx="692" cy="48" fill="hsl(131, 75%, 70%)" opacity="0.22"></circle><circle r="17.5" cx="1381" cy="662" fill="hsl(196, 75%, 70%)" opacity="0.35"></circle><circle r="10" cx="774" cy="560" fill="hsl(130, 75%, 70%)" opacity="0.23"></circle><circle r="6" cx="1263" cy="731" fill="hsl(125, 75%, 70%)" opacity="0.29"></circle><circle r="17" cx="854" cy="537" fill="hsl(156, 75%, 70%)" opacity="0.31"></circle><circle r="9.5" cx="1185" cy="259" fill="hsl(107, 75%, 70%)" opacity="0.58"></circle><circle r="6.5" cx="1203" cy="779" fill="hsl(111, 75%, 70%)" opacity="0.58"></circle><circle r="9" cx="1016" cy="741" fill="hsl(139, 75%, 70%)" opacity="0.78"></circle><circle r="10.5" cx="183" cy="580" fill="hsl(93, 75%, 70%)" opacity="0.34"></circle><circle r="10" cx="334" cy="190" fill="hsl(109, 75%, 70%)" opacity="0.78"></circle><circle r="6.5" cx="1059" cy="472" fill="hsl(125, 75%, 70%)" opacity="0.37"></circle><circle r="12.5" cx="1029" cy="685" fill="hsl(132, 75%, 70%)" opacity="0.77"></circle><circle r="17.5" cx="269" cy="756" fill="hsl(106, 75%, 70%)" opacity="0.23"></circle><circle r="7" cx="1346" cy="320" fill="hsl(170, 75%, 70%)" opacity="0.88"></circle><circle r="12" cx="725" cy="100" fill="hsl(136, 75%, 70%)" opacity="0.44"></circle><circle r="7.5" cx="1025" cy="320" fill="hsl(132, 75%, 70%)" opacity="0.57"></circle><circle r="12" cx="779" cy="167" fill="hsl(146, 75%, 70%)" opacity="0.83"></circle><circle r="8.5" cx="270" cy="313" fill="hsl(106, 75%, 70%)" opacity="0.52"></circle><circle r="11" cx="1112" cy="407" fill="hsl(109, 75%, 70%)" opacity="0.70"></circle><circle r="8" cx="1299" cy="734" fill="hsl(145, 75%, 70%)" opacity="0.71"></circle><circle r="3" cx="333" cy="792" fill="hsl(109, 75%, 70%)" opacity="0.27"></circle><circle r="13.5" cx="1234" cy="662" fill="hsl(117, 75%, 70%)" opacity="0.46"></circle><circle r="13.5" cx="892" cy="700" fill="hsl(159, 75%, 70%)" opacity="0.86"></circle><circle r="11.5" cx="915" cy="469" fill="hsl(158, 75%, 70%)" opacity="0.66"></circle><circle r="11.5" cx="169" cy="255" fill="hsl(89, 75%, 70%)" opacity="0.94"></circle><circle r="12" cx="402" cy="66" fill="hsl(132, 75%, 70%)" opacity="0.91"></circle><circle r="9" cx="103" cy="775" fill="hsl(78, 75%, 70%)" opacity="0.88"></circle><circle r="13" cx="993" cy="627" fill="hsl(146, 75%, 70%)" opacity="0.63"></circle><circle r="6.5" cx="573" cy="449" fill="hsl(89, 75%, 70%)" opacity="0.22"></circle><circle r="7.5" cx="888" cy="160" fill="hsl(168, 75%, 70%)" opacity="0.44"></circle><circle r="9" cx="625" cy="377" fill="hsl(92, 75%, 70%)" opacity="0.13"></circle><circle r="9.5" cx="1219" cy="209" fill="hsl(111, 75%, 70%)" opacity="0.84"></circle><circle r="11" cx="544" cy="702" fill="hsl(90, 75%, 70%)" opacity="0.19"></circle><circle r="10.5" cx="94" cy="130" fill="hsl(105, 75%, 70%)" opacity="0.98"></circle><circle r="12" cx="406" cy="218" fill="hsl(105, 75%, 70%)" opacity="0.78"></circle><circle r="10.5" cx="395" cy="642" fill="hsl(107, 75%, 70%)" opacity="0.93"></circle><circle r="23" cx="223" cy="54" fill="hsl(155, 75%, 70%)" opacity="0.98"></circle><circle r="12" cx="1207" cy="423" fill="hsl(111, 75%, 70%)" opacity="0.75"></circle><circle r="8.5" cx="1128" cy="318" fill="hsl(109, 75%, 70%)" opacity="0.52"></circle><circle r="7" cx="973" cy="764" fill="hsl(151, 75%, 70%)" opacity="0.80"></circle><circle r="8.5" cx="357" cy="738" fill="hsl(109, 75%, 70%)" opacity="0.65"></circle><circle r="17" cx="919" cy="602" fill="hsl(158, 75%, 70%)" opacity="0.30"></circle><circle r="13.5" cx="1319" cy="407" fill="hsl(157, 75%, 70%)" opacity="0.31"></circle><circle r="12.5" cx="865" cy="468" fill="hsl(156, 75%, 70%)" opacity="0.91"></circle><circle r="19" cx="956" cy="48" fill="hsl(223, 75%, 70%)" opacity="0.47"></circle><circle r="18.5" cx="1387" cy="755" fill="hsl(196, 75%, 70%)" opacity="0.38"></circle><circle r="11" cx="215" cy="673" fill="hsl(97, 75%, 70%)" opacity="0.81"></circle><circle r="17.5" cx="885" cy="388" fill="hsl(158, 75%, 70%)" opacity="0.73"></circle><circle r="7" cx="1230" cy="767" fill="hsl(117, 75%, 70%)" opacity="0.67"></circle><circle r="8" cx="1070" cy="280" fill="hsl(119, 75%, 70%)" opacity="0.19"></circle><circle r="12.5" cx="923" cy="746" fill="hsl(158, 75%, 70%)" opacity="0.16"></circle><circle r="11.5" cx="195" cy="523" fill="hsl(93, 75%, 70%)" opacity="0.19"></circle><circle r="6.5" cx="1130" cy="642" fill="hsl(109, 75%, 70%)" opacity="0.21"></circle><circle r="14.5" cx="307" cy="37" fill="hsl(161, 75%, 70%)" opacity="0.89"></circle><circle r="9" cx="1131" cy="519" fill="hsl(109, 75%, 70%)" opacity="0.90"></circle><circle r="14" cx="1178" cy="361" fill="hsl(107, 75%, 70%)" opacity="0.94"></circle><circle r="7" cx="433" cy="259" fill="hsl(103, 75%, 70%)" opacity="0.66"></circle><circle r="10" cx="928" cy="278" fill="hsl(158, 75%, 70%)" opacity="0.31"></circle><circle r="10.5" cx="564" cy="352" fill="hsl(89, 75%, 70%)" opacity="0.72"></circle><circle r="9.5" cx="489" cy="278" fill="hsl(97, 75%, 70%)" opacity="0.56"></circle><circle r="11" cx="1194" cy="487" fill="hsl(107, 75%, 70%)" opacity="0.25"></circle><circle r="14" cx="379" cy="309" fill="hsl(107, 75%, 70%)" opacity="0.83"></circle><circle r="6" cx="110" cy="439" fill="hsl(78, 75%, 70%)" opacity="0.18"></circle><circle r="10" cx="888" cy="775" fill="hsl(158, 75%, 70%)" opacity="0.57"></circle><circle r="17" cx="1389" cy="170" fill="hsl(194, 75%, 70%)" opacity="0.95"></circle><circle r="6" cx="695" cy="304" fill="hsl(107, 75%, 70%)" opacity="0.13"></circle><circle r="7" cx="499" cy="596" fill="hsl(94, 75%, 70%)" opacity="0.98"></circle><circle r="8.5" cx="1406" cy="323" fill="hsl(209, 75%, 70%)" opacity="0.74"></circle><circle r="9" cx="369" cy="162" fill="hsl(115, 75%, 70%)" opacity="0.97"></circle><circle r="13" cx="1332" cy="467" fill="hsl(157, 75%, 70%)" opacity="0.56"></circle><circle r="10.5" cx="110" cy="249" fill="hsl(78, 75%, 70%)" opacity="0.36"></circle><circle r="7" cx="258" cy="276" fill="hsl(103, 75%, 70%)" opacity="0.60"></circle><circle r="8.5" cx="1209" cy="301" fill="hsl(111, 75%, 70%)" opacity="0.92"></circle><circle r="15.5" cx="409" cy="396" fill="hsl(105, 75%, 70%)" opacity="0.38"></circle><circle r="12" cx="285" cy="218" fill="hsl(106, 75%, 70%)" opacity="0.72"></circle><circle r="5" cx="1137" cy="672" fill="hsl(106, 75%, 70%)" opacity="0.89"></circle><circle r="14.5" cx="1251" cy="507" fill="hsl(125, 75%, 70%)" opacity="0.61"></circle><circle r="8" cx="440" cy="618" fill="hsl(103, 75%, 70%)" opacity="0.79"></circle><circle r="11.5" cx="1224" cy="82" fill="hsl(152, 75%, 70%)" opacity="0.71"></circle><circle r="13" cx="598" cy="216" fill="hsl(89, 75%, 70%)" opacity="0.22"></circle><circle r="8.5" cx="730" cy="263" fill="hsl(114, 75%, 70%)" opacity="0.25"></circle><circle r="5.5" cx="955" cy="788" fill="hsl(156, 75%, 70%)" opacity="0.93"></circle><circle r="9" cx="253" cy="478" fill="hsl(103, 75%, 70%)" opacity="0.54"></circle><circle r="9.5" cx="213" cy="451" fill="hsl(97, 75%, 70%)" opacity="0.82"></circle><circle r="16.5" cx="159" cy="129" fill="hsl(114, 75%, 70%)" opacity="0.45"></circle><circle r="11.5" cx="1390" cy="24" fill="hsl(159, 75%, 70%)" opacity="0.71"></circle><circle r="8" cx="1278" cy="249" fill="hsl(134, 75%, 70%)" opacity="0.54"></circle><circle r="6.5" cx="698" cy="344" fill="hsl(107, 75%, 70%)" opacity="0.46"></circle><circle r="13.5" cx="1261" cy="402" fill="hsl(125, 75%, 70%)" opacity="0.84"></circle><circle r="7.5" cx="746" cy="755" fill="hsl(122, 75%, 70%)" opacity="0.96"></circle><circle r="11.5" cx="694" cy="717" fill="hsl(107, 75%, 70%)" opacity="0.32"></circle><circle r="10" cx="29" cy="411" fill="hsl(72, 75%, 70%)" opacity="0.29"></circle><circle r="7" cx="541" cy="308" fill="hsl(90, 75%, 70%)" opacity="0.88"></circle><circle r="10.5" cx="1349" cy="125" fill="hsl(168, 75%, 70%)" opacity="0.90"></circle><circle r="10" cx="63" cy="717" fill="hsl(73, 75%, 70%)" opacity="0.25"></circle><circle r="14.5" cx="952" cy="681" fill="hsl(156, 75%, 70%)" opacity="0.11"></circle><circle r="10" cx="1031" cy="267" fill="hsl(132, 75%, 70%)" opacity="0.57"></circle><circle r="8" cx="30" cy="305" fill="hsl(72, 75%, 70%)" opacity="0.90"></circle><circle r="12" cx="721" cy="156" fill="hsl(121, 75%, 70%)" opacity="0.39"></circle><circle r="6.5" cx="687" cy="272" fill="hsl(101, 75%, 70%)" opacity="0.20"></circle><circle r="11.5" cx="1141" cy="457" fill="hsl(106, 75%, 70%)" opacity="0.59"></circle><circle r="6" cx="1378" cy="327" fill="hsl(196, 75%, 70%)" opacity="0.52"></circle><circle r="9" cx="97" cy="662" fill="hsl(78, 75%, 70%)" opacity="0.58"></circle><circle r="9.5" cx="641" cy="314" fill="hsl(92, 75%, 70%)" opacity="0.98"></circle><circle r="9.5" cx="267" cy="585" fill="hsl(106, 75%, 70%)" opacity="0.32"></circle><circle r="8" cx="144" cy="423" fill="hsl(85, 75%, 70%)" opacity="0.69"></circle><circle r="10.5" cx="997" cy="214" fill="hsl(146, 75%, 70%)" opacity="0.92"></circle><circle r="8" cx="667" cy="364" fill="hsl(101, 75%, 70%)" opacity="0.30"></circle><circle r="10" cx="906" cy="219" fill="hsl(159, 75%, 70%)" opacity="0.64"></circle><circle r="9.5" cx="708" cy="459" fill="hsl(107, 75%, 70%)" opacity="0.69"></circle><circle r="8.5" cx="1272" cy="18" fill="hsl(159, 75%, 70%)" opacity="0.58"></circle><circle r="13.5" cx="1174" cy="27" fill="hsl(183, 75%, 70%)" opacity="0.89"></circle><circle r="15" cx="875" cy="294" fill="hsl(158, 75%, 70%)" opacity="0.55"></circle><circle r="8.5" cx="540" cy="606" fill="hsl(90, 75%, 70%)" opacity="0.26"></circle><circle r="8.5" cx="1128" cy="755" fill="hsl(109, 75%, 70%)" opacity="0.55"></circle><circle r="9" cx="17" cy="43" fill="hsl(162, 75%, 70%)" opacity="0.81"></circle><circle r="10" cx="1088" cy="232" fill="hsl(119, 75%, 70%)" opacity="0.82"></circle><circle r="12" cx="1073" cy="751" fill="hsl(119, 75%, 70%)" opacity="0.12"></circle><circle r="15" cx="797" cy="110" fill="hsl(165, 75%, 70%)" opacity="0.78"></circle><circle r="10.5" cx="854" cy="244" fill="hsl(156, 75%, 70%)" opacity="0.85"></circle><circle r="17.5" cx="791" cy="39" fill="hsl(176, 75%, 70%)" opacity="0.97"></circle><circle r="10" cx="592" cy="295" fill="hsl(89, 75%, 70%)" opacity="0.91"></circle><circle r="10" cx="138" cy="373" fill="hsl(85, 75%, 70%)" opacity="0.72"></circle><circle r="8.5" cx="1021" cy="424" fill="hsl(139, 75%, 70%)" opacity="0.27"></circle><circle r="12" cx="342" cy="608" fill="hsl(109, 75%, 70%)" opacity="0.57"></circle><circle r="9" cx="496" cy="333" fill="hsl(94, 75%, 70%)" opacity="0.73"></circle><circle r="16" cx="1391" cy="527" fill="hsl(196, 75%, 70%)" opacity="0.28"></circle><circle r="10.5" cx="1361" cy="373" fill="hsl(183, 75%, 70%)" opacity="0.89"></circle><circle r="8.5" cx="171" cy="630" fill="hsl(89, 75%, 70%)" opacity="0.96"></circle><circle r="11.5" cx="365" cy="687" fill="hsl(109, 75%, 70%)" opacity="0.54"></circle><circle r="7.5" cx="1032" cy="382" fill="hsl(132, 75%, 70%)" opacity="0.23"></circle><circle r="10.5" cx="767" cy="500" fill="hsl(130, 75%, 70%)" opacity="0.48"></circle><circle r="8.5" cx="1093" cy="181" fill="hsl(113, 75%, 70%)" opacity="0.28"></circle><circle r="7.5" cx="1064" cy="317" fill="hsl(125, 75%, 70%)" opacity="0.55"></circle><circle r="12.5" cx="791" cy="610" fill="hsl(138, 75%, 70%)" opacity="0.60"></circle><circle r="10" cx="685" cy="508" fill="hsl(101, 75%, 70%)" opacity="0.85"></circle><circle r="7.5" cx="398" cy="781" fill="hsl(107, 75%, 70%)" opacity="0.14"></circle><circle r="10" cx="636" cy="24" fill="hsl(109, 75%, 70%)" opacity="0.53"></circle><circle r="9" cx="593" cy="89" fill="hsl(104, 75%, 70%)" opacity="0.61"></circle><circle r="9.5" cx="31" cy="671" fill="hsl(72, 75%, 70%)" opacity="0.16"></circle><circle r="13" cx="848" cy="622" fill="hsl(156, 75%, 70%)" opacity="0.15"></circle><circle r="10.5" cx="132" cy="713" fill="hsl(82, 75%, 70%)" opacity="0.96"></circle><circle r="8.5" cx="1331" cy="279" fill="hsl(157, 75%, 70%)" opacity="0.57"></circle><circle r="9.5" cx="1284" cy="297" fill="hsl(134, 75%, 70%)" opacity="0.76"></circle><circle r="5.5" cx="1262" cy="771" fill="hsl(125, 75%, 70%)" opacity="0.69"></circle><circle r="8.5" cx="1132" cy="160" fill="hsl(120, 75%, 70%)" opacity="0.86"></circle><circle r="12.5" cx="644" cy="559" fill="hsl(92, 75%, 70%)" opacity="0.73"></circle><circle r="10.5" cx="722" cy="213" fill="hsl(114, 75%, 70%)" opacity="0.17"></circle><circle r="5" cx="989" cy="400" fill="hsl(146, 75%, 70%)" opacity="0.78"></circle><circle r="7" cx="1138" cy="254" fill="hsl(106, 75%, 70%)" opacity="0.34"></circle><circle r="12" cx="609" cy="688" fill="hsl(90, 75%, 70%)" opacity="0.83"></circle><circle r="10.5" cx="1008" cy="151" fill="hsl(165, 75%, 70%)" opacity="0.78"></circle><circle r="8.5" cx="553" cy="493" fill="hsl(90, 75%, 70%)" opacity="0.95"></circle><circle r="5" cx="493" cy="30" fill="hsl(109, 75%, 70%)" opacity="0.24"></circle><circle r="12" cx="1340" cy="718" fill="hsl(170, 75%, 70%)" opacity="0.22"></circle><circle r="12.5" cx="337" cy="418" fill="hsl(109, 75%, 70%)" opacity="0.58"></circle><circle r="7" cx="545" cy="267" fill="hsl(90, 75%, 70%)" opacity="0.79"></circle><circle r="7.5" cx="1026" cy="782" fill="hsl(132, 75%, 70%)" opacity="0.46"></circle><circle r="6.5" cx="1244" cy="302" fill="hsl(125, 75%, 70%)" opacity="0.76"></circle><circle r="8" cx="1025" cy="583" fill="hsl(132, 75%, 70%)" opacity="0.58"></circle><circle r="10" cx="1316" cy="27" fill="hsl(155, 75%, 70%)" opacity="0.82"></circle><circle r="14" cx="796" cy="222" fill="hsl(138, 75%, 70%)" opacity="0.37"></circle><circle r="10.5" cx="658" cy="85" fill="hsl(115, 75%, 70%)" opacity="0.51"></circle><circle r="10" cx="797" cy="465" fill="hsl(138, 75%, 70%)" opacity="0.66"></circle><circle r="9.5" cx="1021" cy="479" fill="hsl(139, 75%, 70%)" opacity="0.73"></circle><circle r="7" cx="485" cy="62" fill="hsl(115, 75%, 70%)" opacity="1.00"></circle><circle r="8.5" cx="229" cy="245" fill="hsl(100, 75%, 70%)" opacity="0.70"></circle><circle r="11.5" cx="420" cy="728" fill="hsl(105, 75%, 70%)" opacity="0.62"></circle><circle r="13" cx="798" cy="688" fill="hsl(138, 75%, 70%)" opacity="0.50"></circle><circle r="11" cx="585" cy="625" fill="hsl(89, 75%, 70%)" opacity="0.79"></circle><circle r="9.5" cx="381" cy="118" fill="hsl(125, 75%, 70%)" opacity="0.34"></circle><circle r="11" cx="647" cy="625" fill="hsl(96, 75%, 70%)" opacity="0.75"></circle><circle r="9.5" cx="980" cy="722" fill="hsl(146, 75%, 70%)" opacity="0.46"></circle><circle r="9.5" cx="245" cy="628" fill="hsl(103, 75%, 70%)" opacity="0.85"></circle><circle r="12.5" cx="206" cy="194" fill="hsl(97, 75%, 70%)" opacity="0.56"></circle><circle r="13.5" cx="379" cy="474" fill="hsl(107, 75%, 70%)" opacity="0.19"></circle><circle r="8.5" cx="314" cy="518" fill="hsl(109, 75%, 70%)" opacity="0.90"></circle><circle r="11.5" cx="837" cy="769" fill="hsl(151, 75%, 70%)" opacity="0.56"></circle><circle r="14.5" cx="299" cy="673" fill="hsl(108, 75%, 70%)" opacity="0.86"></circle><circle r="8" cx="1086" cy="490" fill="hsl(119, 75%, 70%)" opacity="0.72"></circle><circle r="10.5" cx="1044" cy="219" fill="hsl(132, 75%, 70%)" opacity="0.89"></circle><circle r="10.5" cx="1048" cy="167" fill="hsl(138, 75%, 70%)" opacity="0.93"></circle><circle r="10.5" cx="711" cy="408" fill="hsl(107, 75%, 70%)" opacity="0.20"></circle><circle r="9.5" cx="614" cy="132" fill="hsl(103, 75%, 70%)" opacity="0.22"></circle><circle r="8.5" cx="799" cy="754" fill="hsl(138, 75%, 70%)" opacity="0.38"></circle><circle r="9" cx="494" cy="536" fill="hsl(94, 75%, 70%)" opacity="0.28"></circle><circle r="8.5" cx="1063" cy="432" fill="hsl(125, 75%, 70%)" opacity="0.26"></circle><circle r="9.5" cx="475" cy="102" fill="hsl(113, 75%, 70%)" opacity="0.63"></circle><circle r="12" cx="1398" cy="91" fill="hsl(181, 75%, 70%)" opacity="0.46"></circle><circle r="8.5" cx="480" cy="490" fill="hsl(97, 75%, 70%)" opacity="0.85"></circle><circle r="14" cx="65" cy="34" fill="hsl(163, 75%, 70%)" opacity="0.77"></circle><circle r="11.5" cx="1044" cy="541" fill="hsl(125, 75%, 70%)" opacity="0.92"></circle><circle r="10.5" cx="25" cy="760" fill="hsl(72, 75%, 70%)" opacity="0.53"></circle><circle r="9.5" cx="190" cy="396" fill="hsl(93, 75%, 70%)" opacity="0.98"></circle><circle r="13" cx="970" cy="121" fill="hsl(188, 75%, 70%)" opacity="0.79"></circle><circle r="16" cx="1392" cy="244" fill="hsl(196, 75%, 70%)" opacity="0.74"></circle><circle r="8" cx="81" cy="404" fill="hsl(75, 75%, 70%)" opacity="0.90"></circle><circle r="11.5" cx="389" cy="558" fill="hsl(107, 75%, 70%)" opacity="0.42"></circle><circle r="12.5" cx="1298" cy="673" fill="hsl(145, 75%, 70%)" opacity="0.11"></circle><circle r="6.5" cx="1247" cy="237" fill="hsl(125, 75%, 70%)" opacity="0.27"></circle><circle r="11" cx="429" cy="516" fill="hsl(103, 75%, 70%)" opacity="0.87"></circle><circle r="11" cx="738" cy="336" fill="hsl(122, 75%, 70%)" opacity="0.80"></circle><circle r="11.5" cx="854" cy="191" fill="hsl(156, 75%, 70%)" opacity="0.61"></circle><circle r="13" cx="40" cy="108" fill="hsl(114, 75%, 70%)" opacity="0.33"></circle><circle r="10.5" cx="958" cy="181" fill="hsl(151, 75%, 70%)" opacity="0.91"></circle><circle r="8.5" cx="974" cy="581" fill="hsl(151, 75%, 70%)" opacity="0.27"></circle><circle r="12" cx="770" cy="382" fill="hsl(130, 75%, 70%)" opacity="0.84"></circle><circle r="4.5" cx="517" cy="12" fill="hsl(102, 75%, 70%)" opacity="0.25"></circle><circle r="9" cx="1368" cy="290" fill="hsl(183, 75%, 70%)" opacity="0.50"></circle><circle r="6" cx="1011" cy="348" fill="hsl(139, 75%, 70%)" opacity="0.96"></circle><circle r="10.5" cx="72" cy="550" fill="hsl(75, 75%, 70%)" opacity="0.57"></circle><circle r="10" cx="472" cy="212" fill="hsl(97, 75%, 70%)" opacity="0.83"></circle><circle r="12.5" cx="853" cy="137" fill="hsl(174, 75%, 70%)" opacity="0.86"></circle><circle r="11" cx="637" cy="472" fill="hsl(92, 75%, 70%)" opacity="0.11"></circle><circle r="8.5" cx="453" cy="777" fill="hsl(100, 75%, 70%)" opacity="0.97"></circle><circle r="12.5" cx="1257" cy="591" fill="hsl(125, 75%, 70%)" opacity="0.47"></circle><circle r="7.5" cx="1098" cy="351" fill="hsl(113, 75%, 70%)" opacity="0.24"></circle><circle r="15" cx="1119" cy="85" fill="hsl(172, 75%, 70%)" opacity="0.39"></circle><circle r="9" cx="456" cy="577" fill="hsl(100, 75%, 70%)" opacity="0.98"></circle><circle r="8" cx="79" cy="321" fill="hsl(75, 75%, 70%)" opacity="0.82"></circle><circle r="8.5" cx="686" cy="778" fill="hsl(101, 75%, 70%)" opacity="0.14"></circle><circle r="9.5" cx="88" cy="478" fill="hsl(75, 75%, 70%)" opacity="0.44"></circle><circle r="10.5" cx="466" cy="157" fill="hsl(105, 75%, 70%)" opacity="0.61"></circle><circle r="11.5" cx="440" cy="336" fill="hsl(103, 75%, 70%)" opacity="0.37"></circle><circle r="9.5" cx="59" cy="267" fill="hsl(73, 75%, 70%)" opacity="0.95"></circle><circle r="8.5" cx="1330" cy="349" fill="hsl(157, 75%, 70%)" opacity="0.76"></circle><circle r="12" cx="295" cy="111" fill="hsl(138, 75%, 70%)" opacity="0.21"></circle><circle r="8" cx="328" cy="557" fill="hsl(109, 75%, 70%)" opacity="0.43"></circle><circle r="15.5" cx="1383" cy="599" fill="hsl(196, 75%, 70%)" opacity="0.56"></circle><circle r="10.5" cx="1273" cy="122" fill="hsl(146, 75%, 70%)" opacity="0.81"></circle><circle r="10" cx="432" cy="23" fill="hsl(127, 75%, 70%)" opacity="0.51"></circle><circle r="17" cx="1085" cy="33" fill="hsl(213, 75%, 70%)" opacity="0.44"></circle><circle r="11" cx="719" cy="557" fill="hsl(114, 75%, 70%)" opacity="0.65"></circle><circle r="8.5" cx="605" cy="420" fill="hsl(90, 75%, 70%)" opacity="0.66"></circle><circle r="10.5" cx="1316" cy="569" fill="hsl(157, 75%, 70%)" opacity="0.69"></circle><circle r="8" cx="419" cy="138" fill="hsl(117, 75%, 70%)" opacity="0.33"></circle><circle r="9.5" cx="859" cy="673" fill="hsl(156, 75%, 70%)" opacity="0.60"></circle><circle r="8.5" cx="538" cy="401" fill="hsl(90, 75%, 70%)" opacity="0.16"></circle><circle r="11" cx="1058" cy="636" fill="hsl(125, 75%, 70%)" opacity="0.70"></circle><circle r="11" cx="344" cy="89" fill="hsl(136, 75%, 70%)" opacity="0.55"></circle><circle r="15.5" cx="544" cy="154" fill="hsl(99, 75%, 70%)" opacity="0.66"></circle><circle r="12.5" cx="1326" cy="232" fill="hsl(157, 75%, 70%)" opacity="0.94"></circle><circle r="17" cx="1390" cy="438" fill="hsl(196, 75%, 70%)" opacity="0.21"></circle><circle r="9" cx="671" cy="221" fill="hsl(101, 75%, 70%)" opacity="0.94"></circle><circle r="6" cx="340" cy="769" fill="hsl(109, 75%, 70%)" opacity="0.29"></circle><circle r="9" cx="525" cy="447" fill="hsl(92, 75%, 70%)" opacity="0.46"></circle><circle r="12" cx="559" cy="51" fill="hsl(103, 75%, 70%)" opacity="0.73"></circle><circle r="10" cx="33" cy="482" fill="hsl(72, 75%, 70%)" opacity="0.49"></circle><circle r="9" cx="1333" cy="87" fill="hsl(164, 75%, 70%)" opacity="0.27"></circle><circle r="11.5" cx="1184" cy="703" fill="hsl(107, 75%, 70%)" opacity="0.17"></circle><circle r="7.5" cx="1305" cy="783" fill="hsl(145, 75%, 70%)" opacity="0.29"></circle><circle r="10.5" cx="39" cy="613" fill="hsl(72, 75%, 70%)" opacity="0.93"></circle><circle r="9" cx="1108" cy="698" fill="hsl(113, 75%, 70%)" opacity="0.56"></circle><circle r="10" cx="447" cy="675" fill="hsl(100, 75%, 70%)" opacity="0.54"></circle><circle r="10.5" cx="255" cy="530" fill="hsl(103, 75%, 70%)" opacity="0.20"></circle><circle r="11" cx="150" cy="314" fill="hsl(85, 75%, 70%)" opacity="0.15"></circle><circle r="13" cx="871" cy="24" fill="hsl(218, 75%, 70%)" opacity="0.75"></circle><circle r="11" cx="133" cy="511" fill="hsl(85, 75%, 70%)" opacity="0.69"></circle><circle r="5.5" cx="740" cy="787" fill="hsl(122, 75%, 70%)" opacity="0.17"></circle><circle r="12.5" cx="660" cy="159" fill="hsl(101, 75%, 70%)" opacity="0.17"></circle><circle r="8" cx="991" cy="502" fill="hsl(146, 75%, 70%)" opacity="0.98"></circle><circle r="9.5" cx="204" cy="314" fill="hsl(97, 75%, 70%)" opacity="0.88"></circle><circle r="12.5" cx="983" cy="291" fill="hsl(146, 75%, 70%)" opacity="0.76"></circle><circle r="9" cx="1090" cy="599" fill="hsl(113, 75%, 70%)" opacity="0.78"></circle><circle r="9" cx="752" cy="704" fill="hsl(122, 75%, 70%)" opacity="0.57"></circle><circle r="8.5" cx="495" cy="380" fill="hsl(94, 75%, 70%)" opacity="0.67"></circle><circle r="12" cx="1321" cy="166" fill="hsl(159, 75%, 70%)" opacity="0.31"></circle><circle r="10" cx="128" cy="195" fill="hsl(82, 75%, 70%)" opacity="0.66"></circle><circle r="9.5" cx="939" cy="426" fill="hsl(156, 75%, 70%)" opacity="0.82"></circle><circle r="12.5" cx="265" cy="419" fill="hsl(103, 75%, 70%)" opacity="0.55"></circle><circle r="8" cx="1157" cy="780" fill="hsl(106, 75%, 70%)" opacity="0.31"></circle><circle r="12.5" cx="496" cy="751" fill="hsl(94, 75%, 70%)" opacity="0.38"></circle><circle r="9.5" cx="1355" cy="52" fill="hsl(160, 75%, 70%)" opacity="0.82"></circle><circle r="12.5" cx="1230" cy="153" fill="hsl(130, 75%, 70%)" opacity="0.49"></circle><circle r="10" cx="307" cy="468" fill="hsl(108, 75%, 70%)" opacity="0.17"></circle><circle r="8.5" cx="169" cy="466" fill="hsl(89, 75%, 70%)" opacity="0.41"></circle><circle r="7" cx="948" cy="221" fill="hsl(156, 75%, 70%)" opacity="0.99"></circle><circle r="12" cx="641" cy="751" fill="hsl(92, 75%, 70%)" opacity="0.69"></circle><circle r="13.5" cx="1176" cy="106" fill="hsl(149, 75%, 70%)" opacity="0.51"></circle><circle r="7.5" cx="51" cy="219" fill="hsl(73, 75%, 70%)" opacity="0.51"></circle><circle r="17" cx="827" cy="345" fill="hsl(151, 75%, 70%)" opacity="0.38"></circle><circle r="19" cx="137" cy="40" fill="hsl(165, 75%, 70%)" opacity="0.28"></circle><circle r="6.5" cx="1121" cy="281" fill="hsl(109, 75%, 70%)" opacity="0.35"></circle><circle r="10" cx="978" cy="438" fill="hsl(146, 75%, 70%)" opacity="0.24"></circle><circle r="14.5" cx="191" cy="748" fill="hsl(93, 75%, 70%)" opacity="0.61"></circle><circle r="15.5" cx="1015" cy="27" fill="hsl(229, 75%, 70%)" opacity="0.95"></circle><circle r="15.5" cx="915" cy="106" fill="hsl(202, 75%, 70%)" opacity="0.16"></circle><circle r="13.5" cx="864" cy="75" fill="hsl(198, 75%, 70%)" opacity="0.12"></circle><circle r="9.5" cx="1240" cy="37" fill="hsl(164, 75%, 70%)" opacity="0.32"></circle><circle r="16" cx="937" cy="343" fill="hsl(156, 75%, 70%)" opacity="0.37"></circle><circle r="16.5" cx="1037" cy="95" fill="hsl(185, 75%, 70%)" opacity="0.46"></circle><circle r="12.5" cx="573" cy="767" fill="hsl(89, 75%, 70%)" opacity="0.45"></circle><circle r="11" cx="1084" cy="132" fill="hsl(157, 75%, 70%)" opacity="0.50"></circle><circle r="7.5" cx="972" cy="546" fill="hsl(151, 75%, 70%)" opacity="0.75"></circle><circle r="10" cx="501" cy="669" fill="hsl(94, 75%, 70%)" opacity="0.54"></circle><circle r="10" cx="1286" cy="343" fill="hsl(134, 75%, 70%)" opacity="0.76"></circle><circle r="12" cx="937" cy="514" fill="hsl(156, 75%, 70%)" opacity="0.91"></circle><circle r="8" cx="55" cy="174" fill="hsl(81, 75%, 70%)" opacity="0.21"></circle><circle r="3.5" cx="10" cy="326" fill="hsl(71, 75%, 70%)" opacity="0.19"></circle><circle r="7.5" cx="85" cy="361" fill="hsl(75, 75%, 70%)" opacity="0.40"></circle><circle r="9" cx="1226" cy="725" fill="hsl(117, 75%, 70%)" opacity="0.80"></circle><circle r="11" cx="809" cy="419" fill="hsl(145, 75%, 70%)" opacity="0.26"></circle><circle r="8.5" cx="362" cy="19" fill="hsl(149, 75%, 70%)" opacity="0.97"></circle><circle r="10.5" cx="1289" cy="79" fill="hsl(155, 75%, 70%)" opacity="0.70"></circle><circle r="10.5" cx="1280" cy="192" fill="hsl(134, 75%, 70%)" opacity="0.25"></circle><circle r="10" cx="640" cy="260" fill="hsl(92, 75%, 70%)" opacity="0.31"></circle><circle r="13" cx="249" cy="147" fill="hsl(118, 75%, 70%)" opacity="0.80"></circle><circle r="15" cx="782" cy="288" fill="hsl(138, 75%, 70%)" opacity="0.87"></circle><circle r="8" cx="1068" cy="375" fill="hsl(119, 75%, 70%)" opacity="0.68"></circle><circle r="6" cx="138" cy="646" fill="hsl(85, 75%, 70%)" opacity="0.39"></circle><circle r="12.5" cx="1201" cy="577" fill="hsl(111, 75%, 70%)" opacity="0.96"></circle><circle r="8.5" cx="921" cy="168" fill="hsl(169, 75%, 70%)" opacity="0.43"></circle><circle r="11" cx="1174" cy="179" fill="hsl(106, 75%, 70%)" opacity="0.55"></circle><circle r="9" cx="1164" cy="614" fill="hsl(106, 75%, 70%)" opacity="0.10"></circle><circle r="8.5" cx="1117" cy="561" fill="hsl(109, 75%, 70%)" opacity="0.96"></circle><circle r="11.5" cx="468" cy="440" fill="hsl(97, 75%, 70%)" opacity="0.80"></circle><circle r="11.5" cx="114" cy="589" fill="hsl(82, 75%, 70%)" opacity="0.84"></circle><circle r="7" cx="953" cy="250" fill="hsl(156, 75%, 70%)" opacity="0.47"></circle></svg>