<svg width="238" height="224" viewBox="0 0 238 224" fill="none" xmlns="http://www.w3.org/2000/svg">
<path fill-rule="evenodd" clip-rule="evenodd" d="M234.66 220.518C234.66 222.176 216.811 223.52 194.794 223.52C172.777 223.52 154.929 222.176 154.929 220.518C154.929 218.861 172.777 217.517 194.794 217.517C216.811 217.517 234.66 218.861 234.66 220.518Z" fill="black" fill-opacity="0.1"/>
<path fill-rule="evenodd" clip-rule="evenodd" d="M83.6894 220.518C83.6894 222.176 65.8397 223.52 43.825 223.52C21.8063 223.52 3.95862 222.176 3.95862 220.518C3.95862 218.861 21.8063 217.517 43.825 217.517C65.8397 217.517 83.6894 218.861 83.6894 220.518Z" fill="black" fill-opacity="0.1"/>
<path fill-rule="evenodd" clip-rule="evenodd" d="M233.602 176.507C233.602 197.939 216.228 215.315 194.794 215.315C173.362 215.315 155.986 197.939 155.986 176.507C155.986 155.075 173.362 137.699 194.794 137.699C216.228 137.699 233.602 155.075 233.602 176.507Z" stroke="#3CAAB0" stroke-width="8.064"/>
<path fill-rule="evenodd" clip-rule="evenodd" d="M230.218 176.507C230.218 196.072 214.358 211.93 194.795 211.93C175.231 211.93 159.369 196.072 159.369 176.507C159.369 156.942 175.231 141.084 194.795 141.084C214.358 141.084 230.218 156.942 230.218 176.507Z" stroke="#092242" stroke-width="4.032"/>
<path fill-rule="evenodd" clip-rule="evenodd" d="M202.685 176.507C202.685 180.866 199.153 184.398 194.794 184.398C190.437 184.398 186.903 180.866 186.903 176.507C186.903 172.148 190.437 168.616 194.794 168.616C199.153 168.616 202.685 172.148 202.685 176.507Z" fill="#092242"/>
<path fill-rule="evenodd" clip-rule="evenodd" d="M82.6322 176.507C82.6322 197.939 65.2563 215.315 43.8242 215.315C22.3901 215.315 5.01624 197.939 5.01624 176.507C5.01624 155.075 22.3901 137.699 43.8242 137.699C65.2563 137.699 82.6322 155.075 82.6322 176.507Z" stroke="#3CAAB0" stroke-width="8.064"/>
<path fill-rule="evenodd" clip-rule="evenodd" d="M79.2479 176.507C79.2479 196.072 63.3881 211.93 43.8248 211.93C24.2595 211.93 8.39966 196.072 8.39966 176.507C8.39966 156.942 24.2595 141.084 43.8248 141.084C63.3881 141.084 79.2479 156.942 79.2479 176.507Z" stroke="#092242" stroke-width="4.032"/>
<path fill-rule="evenodd" clip-rule="evenodd" d="M51.714 176.507C51.714 180.866 48.182 184.398 43.8234 184.398C39.4668 184.398 35.9348 180.866 35.9348 176.507C35.9348 172.148 39.4668 168.616 43.8234 168.616C48.182 168.616 51.714 172.148 51.714 176.507Z" fill="#092242"/>
<path d="M43.8242 171.132L108.788 166.116" stroke="#092242" stroke-width="2.016"/>
<path fill-rule="evenodd" clip-rule="evenodd" d="M122.352 176.507C122.352 182.45 117.534 187.269 111.59 187.269C105.645 187.269 100.827 182.45 100.827 176.507C100.827 170.564 105.645 165.746 111.59 165.746C117.534 165.746 122.352 170.564 122.352 176.507Z" fill="#092242"/>
<path fill-rule="evenodd" clip-rule="evenodd" d="M101.576 91.5447C101.576 93.5849 95.6324 95.24 88.3042 95.24C80.9741 95.24 75.0309 93.5849 75.0309 91.5447C75.0309 89.5025 80.9741 87.8494 88.3042 87.8494C95.6324 87.8494 101.576 89.5025 101.576 91.5447Z" fill="#6B3E00"/>
<path fill-rule="evenodd" clip-rule="evenodd" d="M105.356 70.1631C105.356 70.1631 141.476 90.3231 141.811 100.74C142.148 111.154 108.789 146.434 108.789 146.434L104.18 140.556L122.996 104.602L91.5298 83.9384L105.356 70.1631Z" fill="#96B2E7"/>
<path d="M194.794 176.507L175.87 81.3782" stroke="url(#paint0_linear_80_2419)" stroke-width="4.032" stroke-linecap="round" stroke-linejoin="round"/>
<path d="M91.5291 105.443H180.87" stroke="url(#paint1_linear_80_2419)" stroke-width="4.032" stroke-linecap="round" stroke-linejoin="round"/>
<path d="M107.216 160.591C107.216 160.591 132.908 116.531 182.862 116.531" stroke="url(#paint2_linear_80_2419)" stroke-width="4.032" stroke-linecap="round" stroke-linejoin="round"/>
<path d="M110.36 176.507H43.824C43.824 176.507 46.7915 117.449 89.7243 99.0989" stroke="url(#paint3_linear_80_2419)" stroke-width="4.032" stroke-linecap="round" stroke-linejoin="round"/>
<path d="M88.3032 94.1033L112.747 180.035" stroke="#004AA1" stroke-width="4.032" stroke-linecap="round" stroke-linejoin="round"/>
<path d="M172.219 80.7471H193.891C201.703 80.7471 204.098 89.1881 199.687 94.1031C195.278 99.0181 187.049 97.7581 187.049 97.7581" stroke="url(#paint4_linear_80_2419)" stroke-width="4.032" stroke-linecap="round" stroke-linejoin="round"/>
<path d="M43.0269 182.219L112.746 187.931" stroke="#092242" stroke-width="2.016"/>
<path fill-rule="evenodd" clip-rule="evenodd" d="M142.483 44.4592L154.075 53.0272C154.075 53.0272 190.204 72.9312 192.716 76.8826C195.226 80.8359 194.395 85.6199 192.716 85.4506C191.035 85.2832 185.331 77.7232 185.331 77.7232L136.199 51.6826L142.483 44.4592Z" fill="#E68CA3"/>
<path fill-rule="evenodd" clip-rule="evenodd" d="M106.447 168.623C106.447 168.623 110.858 191.628 112.747 192.636C114.636 193.644 131.178 183.354 130.297 182.219C129.414 181.086 122.293 185.751 119.41 183.9C116.527 182.052 114.362 166.115 114.362 166.115L106.447 168.623Z" fill="#4380FC"/>
<path fill-rule="evenodd" clip-rule="evenodd" d="M77.9959 59.6492C72.9317 70.1626 106.196 171.132 106.196 171.132L116.276 168.624L100.827 69.1546L77.9959 59.6492Z" fill="#96B2E7"/>
<path fill-rule="evenodd" clip-rule="evenodd" d="M122.074 11.7855C122.074 11.7855 121.218 22.9785 125.524 26.8392C129.831 30.6999 134.885 10.5303 134.885 10.5303L122.074 11.7855Z" fill="#092242"/>
<path fill-rule="evenodd" clip-rule="evenodd" d="M141.814 10.8596C141.814 10.8596 146.348 26.6509 144.165 29.3403C141.979 32.0276 137.947 30.0116 135.427 30.1789C132.907 30.3483 131.395 33.0356 131.395 33.0356L124.172 30.5156L127.867 23.7963C127.867 23.7963 125.517 19.5949 127.363 18.9236C129.212 18.2523 131.061 19.4276 131.061 19.4276L131.395 11.7003L141.814 10.8596Z" fill="#E68CA3"/>
<path fill-rule="evenodd" clip-rule="evenodd" d="M75.7623 63.0047C75.7623 63.0047 96.636 76.0583 105.986 73.9878C115.336 71.9174 115.286 58.4687 129.446 51.8945L143.329 59.7428L153.997 50.1406C153.997 50.1406 137.926 33.0106 125.66 27.8053C113.395 22.6 107.637 29.8435 95.7348 39.8408C83.8344 49.8382 75.7623 63.0047 75.7623 63.0047Z" fill="#5856D6"/>
<mask id="mask0_80_2419" style="mask-type:luminance" maskUnits="userSpaceOnUse" x="122" y="4" width="31" height="11">
<path fill-rule="evenodd" clip-rule="evenodd" d="M122.14 4.49609H152.059V14.5973H122.14V4.49609Z" fill="white"/>
</mask>
<g mask="url(#mask0_80_2419)">
<path fill-rule="evenodd" clip-rule="evenodd" d="M124.518 14.5972H152.059C152.059 14.5972 147.146 7.16223 139.963 5.27323C133.183 3.48907 120.17 4.27531 122.392 12.9623C122.635 13.9239 123.527 14.5972 124.518 14.5972Z" fill="#092242"/>
</g>
<mask id="mask1_80_2419" style="mask-type:luminance" maskUnits="userSpaceOnUse" x="130" y="0" width="17" height="10">
<path fill-rule="evenodd" clip-rule="evenodd" d="M132.505 9.92725L146.783 4.1583L145.21 0.264133L130.931 6.03307L132.505 9.92725Z" fill="white"/>
</mask>
<g mask="url(#mask1_80_2419)">
<path fill-rule="evenodd" clip-rule="evenodd" d="M132.067 5.57439L145.21 0.264133C145.21 0.264133 144.023 4.07749 140.89 6.19065C137.932 8.18567 131.599 10.3917 131.306 6.61473C131.273 6.19701 131.593 5.76563 132.067 5.57439Z" fill="#092242"/>
</g>
<path fill-rule="evenodd" clip-rule="evenodd" d="M130.768 8.03174L149.886 0.307735C149.886 0.307735 148.405 6.46238 143.91 9.69054C139.666 12.7383 130.429 15.8828 129.716 9.67866C129.636 8.99243 130.08 8.30992 130.768 8.03174Z" fill="#092242"/>
<defs>
<linearGradient id="paint0_linear_80_2419" x1="197.694" y1="205.666" x2="197.694" y2="81.3782" gradientUnits="userSpaceOnUse">
<stop stop-color="#009EFD"/>
<stop offset="1" stop-color="#2AF598"/>
</linearGradient>
<linearGradient id="paint1_linear_80_2419" x1="194.562" y1="107.069" x2="194.562" y2="104.435" gradientUnits="userSpaceOnUse">
<stop stop-color="#009EFD"/>
<stop offset="1" stop-color="#2AF598"/>
</linearGradient>
<linearGradient id="paint2_linear_80_2419" x1="194.456" y1="174.096" x2="194.456" y2="116.531" gradientUnits="userSpaceOnUse">
<stop stop-color="#009EFD"/>
<stop offset="1" stop-color="#2AF598"/>
</linearGradient>
<linearGradient id="paint3_linear_80_2419" x1="120.557" y1="200.234" x2="120.557" y2="99.0989" gradientUnits="userSpaceOnUse">
<stop stop-color="#009EFD"/>
<stop offset="1" stop-color="#2AF598"/>
</linearGradient>
<linearGradient id="paint4_linear_80_2419" x1="206.427" y1="103.161" x2="206.427" y2="80.7471" gradientUnits="userSpaceOnUse">
<stop stop-color="#009EFD"/>
<stop offset="1" stop-color="#2AF598"/>
</linearGradient>
</defs>
</svg>
