<svg width="270" height="241" viewBox="0 0 270 241" fill="none" xmlns="http://www.w3.org/2000/svg">
<path fill-rule="evenodd" clip-rule="evenodd" d="M249.457 163.656C249.457 165.271 238.98 166.581 226.057 166.581C213.133 166.581 202.657 165.271 202.657 163.656C202.657 162.041 213.133 160.731 226.057 160.731C238.98 160.731 249.457 162.041 249.457 163.656Z" fill="black" fill-opacity="0.1"/>
<path fill-rule="evenodd" clip-rule="evenodd" d="M97.16 163.656C97.16 165.271 88.5163 166.581 77.8555 166.581C67.1929 166.581 58.55 165.271 58.55 163.656C58.55 162.041 67.1929 160.731 77.8555 160.731C88.5163 160.731 97.16 162.041 97.16 163.656Z" fill="black" fill-opacity="0.1"/>
<path fill-rule="evenodd" clip-rule="evenodd" d="M265.542 120.633C265.542 141.589 248.554 158.579 227.596 158.579C206.64 158.579 189.65 141.589 189.65 120.633C189.65 99.6767 206.64 82.6868 227.596 82.6868C248.554 82.6868 265.542 99.6767 265.542 120.633Z" stroke="url(#paint0_linear_0_1)" stroke-width="7.88486"/>
<path fill-rule="evenodd" clip-rule="evenodd" d="M262.233 120.633C262.233 139.763 246.725 155.269 227.597 155.269C208.468 155.269 192.958 139.763 192.958 120.633C192.958 101.502 208.468 85.9966 227.597 85.9966C246.725 85.9966 262.233 101.502 262.233 120.633Z" stroke="#092242" stroke-width="3.94243"/>
<path fill-rule="evenodd" clip-rule="evenodd" d="M235.312 120.633C235.312 124.895 231.858 128.348 227.596 128.348C223.336 128.348 219.881 124.895 219.881 120.633C219.881 116.371 223.336 112.917 227.596 112.917C231.858 112.917 235.312 116.371 235.312 120.633Z" fill="#092242"/>
<path fill-rule="evenodd" clip-rule="evenodd" d="M117.926 120.633C117.926 141.589 100.936 158.579 79.9801 158.579C59.0221 158.579 42.0342 141.589 42.0342 120.633C42.0342 99.6767 59.0221 82.6868 79.9801 82.6868C100.936 82.6868 117.926 99.6767 117.926 120.633Z" stroke="url(#paint1_linear_0_1)" stroke-width="7.88486"/>
<path fill-rule="evenodd" clip-rule="evenodd" d="M114.617 120.633C114.617 139.763 99.1094 155.269 79.9807 155.269C60.8501 155.269 45.3425 139.763 45.3425 120.633C45.3425 101.502 60.8501 85.9966 79.9807 85.9966C99.1094 85.9966 114.617 101.502 114.617 120.633Z" stroke="#092242" stroke-width="3.94243"/>
<path fill-rule="evenodd" clip-rule="evenodd" d="M87.6946 120.633C87.6946 124.895 84.241 128.348 79.9792 128.348C75.7194 128.348 72.2659 124.895 72.2659 120.633C72.2659 116.371 75.7194 112.917 79.9792 112.917C84.241 112.917 87.6946 116.371 87.6946 120.633Z" fill="#092242"/>
<path d="M79.98 115.377L143.5 110.472" stroke="#092242" stroke-width="1.97122"/>
<path fill-rule="evenodd" clip-rule="evenodd" d="M156.763 120.633C156.763 126.444 152.052 131.155 146.241 131.155C140.428 131.155 135.717 126.444 135.717 120.633C135.717 114.822 140.428 110.11 146.241 110.11C152.052 110.11 156.763 114.822 156.763 120.633Z" fill="#092242"/>
<path d="M227.596 120.633L209.092 27.6169" stroke="url(#paint2_linear_0_1)" stroke-width="3.94243" stroke-linecap="round" stroke-linejoin="round"/>
<path d="M126.625 51.1475H213.982" stroke="url(#paint3_linear_0_1)" stroke-width="3.94243" stroke-linecap="round" stroke-linejoin="round"/>
<path d="M141.964 105.07C141.964 105.07 167.085 61.989 215.93 61.989" stroke="url(#paint4_linear_0_1)" stroke-width="3.94243" stroke-linecap="round" stroke-linejoin="round"/>
<path d="M145.038 120.633H79.98C79.98 120.633 82.8816 62.8861 124.861 44.9441" stroke="url(#paint5_linear_0_1)" stroke-width="3.94243" stroke-linecap="round" stroke-linejoin="round"/>
<path d="M123.471 40.0593L147.372 124.082" stroke="url(#paint6_linear_0_1)" stroke-width="3.94243" stroke-linecap="round" stroke-linejoin="round"/>
<path d="M205.523 27H226.714C234.352 27 236.694 35.2535 232.381 40.0593C228.07 44.8651 220.023 43.6331 220.023 43.6331" stroke="url(#paint7_linear_0_1)" stroke-width="3.94243" stroke-linecap="round" stroke-linejoin="round"/>
<path d="M79.2004 126.218L147.371 131.803" stroke="#092242" stroke-width="1.97122"/>
<path fill-rule="evenodd" clip-rule="evenodd" d="M117.926 41.1708C110.759 41.1708 110.493 39.5524 110.493 37.5576C110.493 35.5607 110.759 33.9443 117.926 33.9443C125.091 33.9443 136.448 35.5607 136.448 37.5576C136.448 39.5524 125.091 41.1708 117.926 41.1708Z" fill="#6B3E00"/>
<path fill-rule="evenodd" clip-rule="evenodd" d="M178.479 90.3854C178.479 90.3854 181.911 102.638 162.326 107.433L106.682 121.057C106.682 121.057 100.577 122.551 98.8818 116.499L97.1458 110.298C97.1458 110.298 93.7146 98.0454 113.299 93.2502L162.775 81.1372C162.775 81.1372 175.049 78.1317 178.456 90.2999L178.479 90.3854Z" fill="#DDAB89"/>
<path fill-rule="evenodd" clip-rule="evenodd" d="M175.359 129.59C175.359 129.59 176.56 141.741 157.253 143.008L102.393 146.611C102.393 146.611 96.3797 147.006 95.7875 141.009L95.179 134.855C95.179 134.855 93.9783 122.704 113.285 121.436L162.067 118.233C162.067 118.233 174.159 117.439 175.35 129.497L175.359 129.59Z" fill="#DDAB89"/>
<path fill-rule="evenodd" clip-rule="evenodd" d="M173.138 159.448C173.138 159.448 174.402 172.238 154.079 173.573L96.3383 177.364C96.3383 177.364 90.0015 177.781 89.3774 171.461L88.7379 164.99C88.7379 164.99 87.4743 152.199 107.797 150.865L159.136 147.494C159.136 147.494 171.874 146.657 173.129 159.361L173.138 159.448Z" fill="#DDAB89"/>
<path fill-rule="evenodd" clip-rule="evenodd" d="M150.735 199.029C150.735 199.029 149.66 210.491 131.563 208.191L80.0962 201.648C80.0962 201.648 74.5034 200.938 75.0296 195.325L75.5784 189.476C75.5784 189.476 76.6528 178.013 94.7501 180.314L140.496 186.128C140.496 186.128 151.809 187.566 150.744 198.921L150.735 199.029Z" fill="#DDAB89"/>
<mask id="mask0_0_1" style="mask-type:luminance" maskUnits="userSpaceOnUse" x="0" y="0" width="179" height="241">
<path fill-rule="evenodd" clip-rule="evenodd" d="M0 240.041H178.71V0.0644531H0V240.041Z" fill="white"/>
</mask>
<g mask="url(#mask0_0_1)">
<path fill-rule="evenodd" clip-rule="evenodd" d="M64.6802 174.897H165.071V19.6614H64.6802V174.897Z" fill="#EDEDED"/>
</g>
<mask id="mask1_0_1" style="mask-type:luminance" maskUnits="userSpaceOnUse" x="70" y="19" width="89" height="156">
<path fill-rule="evenodd" clip-rule="evenodd" d="M70.8823 19.6614H158.869V174.897H70.8823V19.6614Z" fill="white"/>
</mask>
<g mask="url(#mask1_0_1)">
<path fill-rule="evenodd" clip-rule="evenodd" d="M70.8823 174.897H158.869V19.6516H70.8823V174.897Z" fill="white"/>
</g>
<mask id="mask2_0_1" style="mask-type:luminance" maskUnits="userSpaceOnUse" x="64" y="0" width="102" height="200">
<path fill-rule="evenodd" clip-rule="evenodd" d="M64.6516 0.0644531H165.033V199.694H64.6516V0.0644531Z" fill="white"/>
</mask>
<g mask="url(#mask2_0_1)">
<path fill-rule="evenodd" clip-rule="evenodd" d="M64.6516 175.036V188.117C64.6516 188.117 64.6516 199.686 83.8408 199.686H145.843C145.843 199.686 165.033 200.562 165.033 183.763V175.036H64.6516ZM165.033 19.8007V15.4736C165.033 15.4736 165.033 0.0953726 145.843 0.0953726H83.8408C83.8408 0.0953726 64.6516 -1.34714 64.6516 15.4736V19.8007H165.033Z" fill="#254553"/>
</g>
<mask id="mask3_0_1" style="mask-type:luminance" maskUnits="userSpaceOnUse" x="0" y="0" width="179" height="241">
<path fill-rule="evenodd" clip-rule="evenodd" d="M0 240.041H178.71V0.0644531H0V240.041Z" fill="white"/>
</mask>
<g mask="url(#mask3_0_1)">
<path fill-rule="evenodd" clip-rule="evenodd" d="M106.785 11.9068H129.175V9.09814H106.785V11.9068Z" fill="#EDEDED"/>
<path fill-rule="evenodd" clip-rule="evenodd" d="M100.606 11.9068H104.343V9.09814H100.606V11.9068Z" fill="#EDEDED"/>
<path fill-rule="evenodd" clip-rule="evenodd" d="M99.3217 200.093C99.3217 200.093 138.219 169.239 118.841 153.59C106.951 143.986 99.5744 163.041 88.3057 168.024C70.1494 176.051 64.6517 181.928 64.6517 181.928V117.677C61.818 118.473 49.226 124.508 44.3747 131.514C39.5233 138.521 14.4921 207.631 12.9785 212.289C12.2572 214.509 2.57146 236.837 0 240.041H78.7535C84.995 234.718 94.9904 222.223 99.3217 200.093Z" fill="#E8BA9C"/>
<path fill-rule="evenodd" clip-rule="evenodd" d="M103.338 170.081C103.338 170.081 94.9191 165.119 98.7967 159.916C98.7967 159.916 107.4 147.234 114.754 153.778C115.669 154.592 121.983 158.84 117.094 165.823L115.457 168.16C115.457 168.16 110.568 175.143 103.585 170.254L103.338 170.081Z" fill="#EFCFB9"/>
</g>
<mask id="mask4_0_1" style="mask-type:luminance" maskUnits="userSpaceOnUse" x="76" y="58" width="78" height="79">
<path fill-rule="evenodd" clip-rule="evenodd" d="M76.5 58.7622H153.183V136.682H76.5V58.7622Z" fill="white"/>
</mask>
<g mask="url(#mask4_0_1)">
<path fill-rule="evenodd" clip-rule="evenodd" d="M148.059 58.762H81.624C78.7944 58.762 76.5 61.0929 76.5 63.9681V131.476C76.5 134.351 78.7944 136.681 81.624 136.681H148.059C150.889 136.681 153.183 134.351 153.183 131.476V63.9681C153.183 61.0929 150.889 58.762 148.059 58.762Z" fill="white"/>
</g>
<mask id="mask5_0_1" style="mask-type:luminance" maskUnits="userSpaceOnUse" x="76" y="58" width="78" height="79">
<path fill-rule="evenodd" clip-rule="evenodd" d="M76.5 136.62H153.36V58.5H76.5V136.62Z" fill="white"/>
</mask>
<g mask="url(#mask5_0_1)">
<path fill-rule="evenodd" clip-rule="evenodd" d="M143.28 126.54H145.8V124.02H143.28V126.54Z" fill="black"/>
<path fill-rule="evenodd" clip-rule="evenodd" d="M129.6 82.2617H143.103V68.7622H129.6V82.2617ZM126.9 84.9601H145.8V66.0601H126.9V84.9601Z" fill="black"/>
<path fill-rule="evenodd" clip-rule="evenodd" d="M139.5 103.86H142.02V101.34H139.5V103.86Z" fill="black"/>
<path fill-rule="evenodd" clip-rule="evenodd" d="M140.76 90V92.834H143.282V95.668H140.76V98.506H143.282V101.34H145.8V90H140.76Z" fill="black"/>
<path fill-rule="evenodd" clip-rule="evenodd" d="M137.819 93.78V91.26H134.88V93.78H131.94V96.3H140.76V93.78H137.819Z" fill="black"/>
<path fill-rule="evenodd" clip-rule="evenodd" d="M134.46 101.34H136.98V98.8201H134.46V101.34Z" fill="black"/>
<path fill-rule="evenodd" clip-rule="evenodd" d="M131.94 79.9201H140.76V72.3601H131.94V79.9201Z" fill="black"/>
<path fill-rule="evenodd" clip-rule="evenodd" d="M134.88 115.2H131.94V123.515H134.88V126.285H137.82V129.06H140.76V123.515H137.82V120.745H134.88V115.2Z" fill="black"/>
<path fill-rule="evenodd" clip-rule="evenodd" d="M129.42 112.257H134.964V114.92H137.736V120.24H143.28V112.257H137.736V109.599H134.964V104.279H132.192V96.3H129.42V112.257Z" fill="black"/>
<path fill-rule="evenodd" clip-rule="evenodd" d="M127.979 117.97H125.279V123.515H119.878V115.2H117.177V120.745H111.78V123.515H117.177V126.285H122.578V129.06H130.68V123.515H127.979V117.97Z" fill="black"/>
<path fill-rule="evenodd" clip-rule="evenodd" d="M125.64 93.78H128.16V91.26H125.64V93.78Z" fill="black"/>
<path fill-rule="evenodd" clip-rule="evenodd" d="M123.12 98.82H125.64V96.3H123.12V98.82Z" fill="black"/>
<path fill-rule="evenodd" clip-rule="evenodd" d="M120.6 68.8346H109.513V66.0601H106.74V71.605H112.285V74.3792H117.827V79.9201H120.6V68.8346Z" fill="black"/>
<path fill-rule="evenodd" clip-rule="evenodd" d="M114.3 112.68H117.132V107.223H125.64V101.762H122.804V104.49H117.132V96.3H114.3V112.68Z" fill="black"/>
<path fill-rule="evenodd" clip-rule="evenodd" d="M109.68 126.538H106.74V129.06H115.56V126.538H112.62V124.02H109.68V126.538Z" fill="black"/>
<path fill-rule="evenodd" clip-rule="evenodd" d="M109.68 112.048V106.38H106.74V114.886H112.62V117.72H115.56V112.048H109.68Z" fill="black"/>
<path fill-rule="evenodd" clip-rule="evenodd" d="M109.471 93.5712H106.74V96.2999H112.202V90.8425H117.659V96.2999H120.39V90.8425H123.12V82.6527H117.659V79.9199H114.932V85.3814H117.659V88.1101H114.932V85.3814H112.202V88.1101H109.471V85.3814H106.74V90.8425H109.471V93.5712Z" fill="black"/>
<path fill-rule="evenodd" clip-rule="evenodd" d="M109.26 82.4399H111.78V79.9199H109.26V82.4399Z" fill="black"/>
<path fill-rule="evenodd" clip-rule="evenodd" d="M106.74 122.76H109.26V117.72H106.74V122.76Z" fill="black"/>
<path fill-rule="evenodd" clip-rule="evenodd" d="M106.74 77.3999H109.26V74.8799H106.74V77.3999Z" fill="black"/>
<path fill-rule="evenodd" clip-rule="evenodd" d="M106.53 102.349H109.26V99.5777H103.8V102.349H101.07V99.5777H103.8V96.8026H101.07V94.0313H106.53V91.26H98.3398V94.0313H95.6101V96.8026H98.3398V99.5777H92.8799V102.349H95.6101V105.12H106.53V102.349Z" fill="black"/>
<path fill-rule="evenodd" clip-rule="evenodd" d="M86.7611 126.358H100.26V112.858H86.7611V126.358ZM84.0601 129.06H102.96V110.16H84.0601V129.06Z" fill="black"/>
<path fill-rule="evenodd" clip-rule="evenodd" d="M89.1001 122.76H97.9201V115.2H89.1001V122.76Z" fill="black"/>
<path fill-rule="evenodd" clip-rule="evenodd" d="M90.3601 93.78H95.4001V91.26H90.3601V93.78Z" fill="black"/>
<path fill-rule="evenodd" clip-rule="evenodd" d="M89.1001 79.9201H97.9201V72.3601H89.1001V79.9201Z" fill="black"/>
<path fill-rule="evenodd" clip-rule="evenodd" d="M86.5801 103.86H89.1001V101.34H86.5801V103.86Z" fill="black"/>
<path fill-rule="evenodd" clip-rule="evenodd" d="M86.5801 98.82H89.1001V96.3H86.5801V98.82Z" fill="black"/>
<path fill-rule="evenodd" clip-rule="evenodd" d="M86.7613 82.262H100.26V68.7624H86.7613V82.262ZM84.0601 84.9601H102.96V66.0601H84.0601V84.9601Z" fill="black"/>
<path fill-rule="evenodd" clip-rule="evenodd" d="M84.0601 101.34H86.5801V98.8201H84.0601V101.34Z" fill="black"/>
<path fill-rule="evenodd" clip-rule="evenodd" d="M84.0601 93.78H86.5801V91.26H84.0601V93.78Z" fill="black"/>
</g>
<path d="M88.3708 58.5H76.1533V136.5H89.1533" stroke="url(#paint8_linear_0_1)" stroke-width="2"/>
<path d="M141.782 58.5H154V136.5H141" stroke="url(#paint9_linear_0_1)" stroke-width="2"/>
<defs>
<linearGradient id="paint0_linear_0_1" x1="277.173" y1="181.841" x2="277.173" y2="82.6868" gradientUnits="userSpaceOnUse">
<stop stop-color="#009EFD"/>
<stop offset="1" stop-color="#2AF598"/>
</linearGradient>
<linearGradient id="paint1_linear_0_1" x1="129.557" y1="181.841" x2="129.557" y2="82.6868" gradientUnits="userSpaceOnUse">
<stop stop-color="#009EFD"/>
<stop offset="1" stop-color="#2AF598"/>
</linearGradient>
<linearGradient id="paint2_linear_0_1" x1="230.432" y1="149.143" x2="230.432" y2="27.6169" gradientUnits="userSpaceOnUse">
<stop stop-color="#009EFD"/>
<stop offset="1" stop-color="#2AF598"/>
</linearGradient>
<linearGradient id="paint3_linear_0_1" x1="227.37" y1="52.7373" x2="227.37" y2="50.1619" gradientUnits="userSpaceOnUse">
<stop stop-color="#009EFD"/>
<stop offset="1" stop-color="#2AF598"/>
</linearGradient>
<linearGradient id="paint4_linear_0_1" x1="227.265" y1="118.275" x2="227.265" y2="61.989" gradientUnits="userSpaceOnUse">
<stop stop-color="#009EFD"/>
<stop offset="1" stop-color="#2AF598"/>
</linearGradient>
<linearGradient id="paint5_linear_0_1" x1="155.009" y1="143.833" x2="155.009" y2="44.9441" gradientUnits="userSpaceOnUse">
<stop stop-color="#009EFD"/>
<stop offset="1" stop-color="#2AF598"/>
</linearGradient>
<linearGradient id="paint6_linear_0_1" x1="151.035" y1="149.837" x2="151.035" y2="40.0593" gradientUnits="userSpaceOnUse">
<stop stop-color="#009EFD"/>
<stop offset="1" stop-color="#2AF598"/>
</linearGradient>
<linearGradient id="paint7_linear_0_1" x1="238.971" y1="48.9163" x2="238.971" y2="27" gradientUnits="userSpaceOnUse">
<stop stop-color="#009EFD"/>
<stop offset="1" stop-color="#2AF598"/>
</linearGradient>
<linearGradient id="paint8_linear_0_1" x1="91.1457" y1="160.408" x2="91.1457" y2="58.5" gradientUnits="userSpaceOnUse">
<stop stop-color="#009EFD"/>
<stop offset="1" stop-color="#2AF598"/>
</linearGradient>
<linearGradient id="paint9_linear_0_1" x1="139.008" y1="160.408" x2="139.008" y2="58.5" gradientUnits="userSpaceOnUse">
<stop stop-color="#009EFD"/>
<stop offset="1" stop-color="#2AF598"/>
</linearGradient>
</defs>
</svg>
